<?xml version="1.0" encoding="UTF-8" standalone="no"?>
<!-- Created with Inkscape (http://www.inkscape.org/) -->

<svg
   width="126.67082mm"
   height="114.58417mm"
   viewBox="0 0 126.67082 114.58417"
   version="1.1"
   id="svg26292"
   inkscape:version="1.1.2 (0a00cf5339, 2022-02-04)"
   sodipodi:docname="infrastructure.svg"
   xmlns:inkscape="http://www.inkscape.org/namespaces/inkscape"
   xmlns:sodipodi="http://sodipodi.sourceforge.net/DTD/sodipodi-0.dtd"
   xmlns="http://www.w3.org/2000/svg"
   xmlns:svg="http://www.w3.org/2000/svg">
  <sodipodi:namedview
     id="namedview26294"
     pagecolor="#ffffff"
     bordercolor="#666666"
     borderopacity="1.0"
     inkscape:pageshadow="2"
     inkscape:pageopacity="0.0"
     inkscape:pagecheckerboard="0"
     inkscape:document-units="mm"
     showgrid="false"
     inkscape:zoom="1.8116734"
     inkscape:cx="213.33867"
     inkscape:cy="218.85843"
     inkscape:window-width="1920"
     inkscape:window-height="1136"
     inkscape:window-x="0"
     inkscape:window-y="0"
     inkscape:window-maximized="1"
     inkscape:current-layer="layer1"
     fit-margin-top="0"
     fit-margin-left="0"
     fit-margin-right="0"
     fit-margin-bottom="0" />
  <defs
     id="defs26289">
    <rect
       x="299.11838"
       y="285.39859"
       width="33.263672"
       height="68.114082"
       id="rect38053" />
  </defs>
  <g
     inkscape:label="Calque 1"
     inkscape:groupmode="layer"
     id="layer1"
     transform="translate(-33.467796,-7.4145309)">
    <path
       style="fill:none;stroke:#000000;stroke-width:0.264583px;stroke-linecap:butt;stroke-linejoin:miter;stroke-opacity:1"
       d="m 89.285303,32.548917 -0.02461,23.766664"
       id="path48423"
       sodipodi:nodetypes="cc" />
    <g
       id="g43596">
      <path
         d="m 72.084535,12.28709 c -15.061901,0 -18.827376,7.400685 -6.777856,8.880823 -12.04952,3.256301 1.506191,10.36096 11.296428,7.400685 6.777858,5.920548 29.370713,5.920548 36.901663,0 15.0619,0 15.0619,-5.920548 5.64821,-8.880823 C 128.56667,13.767227 113.50477,7.846678 100.3256,10.806952 90.911916,6.3665403 75.850012,6.3665403 72.084535,12.28709 Z"
         fill="#ffffff"
         stroke="#000000"
         stroke-miterlimit="10"
         pointer-events="all"
         id="path6"
         style="stroke-width:0.454337" />
      <text
         xml:space="preserve"
         style="font-size:4.23333px;line-height:1.25;font-family:sans-serif;word-spacing:0px;stroke-width:0.264583"
         x="68.39193"
         y="21.9883"
         id="text32148"><tspan
           sodipodi:role="line"
           id="tspan32146"
           style="font-size:4.23333px;stroke-width:0.264583"
           x="68.39193"
           y="21.9883">Réseau de l'université</tspan></text>
    </g>
    <text
       xml:space="preserve"
       transform="scale(0.26458333)"
       id="text38051"
       style="font-size:21.3333px;line-height:1.25;font-family:sans-serif;word-spacing:0px;white-space:pre;shape-inside:url(#rect38053)" />
    <text
       xml:space="preserve"
       style="font-size:4.23333px;line-height:1.25;font-family:sans-serif;word-spacing:0px;stroke-width:0.264583"
       x="99.153816"
       y="67.184181"
       id="text46394"><tspan
         sodipodi:role="line"
         id="tspan46392"
         style="font-size:4.23333px;stroke-width:0.264583"
         x="99.153816"
         y="67.184181">Machine de virtualisation</tspan></text>
    <text
       xml:space="preserve"
       style="font-size:4.23333px;line-height:1.25;font-family:sans-serif;word-spacing:0px;stroke-width:0.264583"
       x="132.82661"
       y="115.9567"
       id="text52430"><tspan
         sodipodi:role="line"
         id="tspan52428"
         style="font-size:4.23333px;stroke-width:0.264583"
         x="132.82661"
         y="115.9567">Sauvegardes</tspan></text>
    <text
       xml:space="preserve"
       style="font-size:4.23333px;line-height:1.25;font-family:sans-serif;text-align:center;word-spacing:0px;text-anchor:middle;stroke-width:0.264583"
       x="106.37634"
       y="115.9567"
       id="text63234"><tspan
         sodipodi:role="line"
         id="tspan63232"
         style="font-size:4.23333px;text-align:center;text-anchor:middle;stroke-width:0.264583"
         x="106.37634"
         y="115.9567">Base de</tspan><tspan
         sodipodi:role="line"
         style="font-size:4.23333px;text-align:center;text-anchor:middle;stroke-width:0.264583"
         x="106.37634"
         y="121.24837"
         id="tspan63236">données</tspan></text>
    <text
       xml:space="preserve"
       style="font-size:4.23333px;line-height:1.25;font-family:sans-serif;word-spacing:0px;stroke-width:0.264583"
       x="74.132881"
       y="115.88226"
       id="text67638"><tspan
         sodipodi:role="line"
         id="tspan67636"
         style="font-size:4.23333px;text-align:center;text-anchor:middle;stroke-width:0.264583"
         x="74.132881"
         y="115.88226">Serveur</tspan><tspan
         sodipodi:role="line"
         style="font-size:4.23333px;text-align:center;text-anchor:middle;stroke-width:0.264583"
         x="74.132881"
         y="121.17393"
         id="tspan67640">Odoo</tspan></text>
    <text
       xml:space="preserve"
       style="font-size:4.23333px;line-height:1.25;font-family:sans-serif;word-spacing:0px;stroke-width:0.264583"
       x="41.560318"
       y="115.82647"
       id="text80800"><tspan
         sodipodi:role="line"
         id="tspan80798"
         style="font-size:4.23333px;text-align:center;text-anchor:middle;stroke-width:0.264583"
         x="41.560318"
         y="115.82647">Reverse</tspan><tspan
         sodipodi:role="line"
         style="font-size:4.23333px;text-align:center;text-anchor:middle;stroke-width:0.264583"
         x="41.560318"
         y="121.11813"
         id="tspan80802">proxy</tspan></text>
    <path
       style="fill:none;stroke:#000000;stroke-width:0.264583px;stroke-linecap:butt;stroke-linejoin:miter;stroke-opacity:1"
       d="M 41.263821,98.884567 41.451786,86.102472 143.29382,85.603878 v 12.04368"
       id="path87883" />
    <path
       style="fill:none;stroke:#000000;stroke-width:0.264583px;stroke-linecap:butt;stroke-linejoin:miter;stroke-opacity:1"
       d="M 103.9784,85.799926 V 97.776645"
       id="path87887" />
    <path
       style="fill:none;stroke:#000000;stroke-width:0.264583px;stroke-linecap:butt;stroke-linejoin:miter;stroke-opacity:1"
       d="M 71.744495,85.883341 V 97.783614"
       id="path88082" />
    <path
       style="fill:none;stroke:#000000;stroke-width:0.264583px;stroke-linecap:butt;stroke-linejoin:miter;stroke-opacity:1"
       d="M 89.082609,85.825152 V 68.652476"
       id="path88084" />
    <path
       d="m 79.572014,106.58924 h 0.39423 v -0.39423 h -0.39423 z m -0.785812,0 h 0.394229 v -0.39423 h -0.394229 z m -10.599207,4.34711 V 97.902972 c 0,-0.48419 0.399519,-0.7964 0.764645,-0.7964 h 5.490105 c 0.547686,0 0.81227,0.43921 0.81227,0.79111 v 7.307788 h -2.169584 c -0.568854,0 -0.97102,0.48419 -0.97102,0.97102 v 0.80698 h -2.553229 v 0.59267 h 2.553229 v 1.18533 h -2.553229 v 0.59267 h 2.553229 v 1.58221 z m 1.373187,-11.459108 h 4.320645 v -0.59266 h -4.320645 z m 3.518958,12.445998 c -0.182563,0 -0.378355,-0.13758 -0.378355,-0.38364 v -5.36311 c 0,-0.18521 0.132293,-0.37835 0.391584,-0.37835 h 6.892395 c 0.216959,0 0.373063,0.16933 0.373063,0.39423 v 5.33929 c 0,0.25135 -0.182563,0.39158 -0.378354,0.39158 z m 0.01588,-0.39423 h 6.87123 v -4.54554 h -6.87123 z m 4.908022,-4.93977 h 0.391583 v -0.39423 h -0.391583 z"
       fill="#505050"
       stroke="none"
       pointer-events="all"
       id="path28-4"
       style="stroke-width:0.264583" />
    <path
       d="m 111.68932,106.58925 h 0.39423 v -0.39423 h -0.39423 z m -0.78581,0 h 0.39423 v -0.39423 h -0.39423 z m -10.59921,4.3471 V 97.902972 c 0,-0.48419 0.39952,-0.7964 0.76465,-0.7964 h 5.4901 c 0.54769,0 0.81227,0.43921 0.81227,0.79111 v 7.307798 h -2.16958 c -0.56885,0 -0.97102,0.48419 -0.97102,0.97102 v 0.80698 h -2.55323 v 0.59267 h 2.55323 v 1.18533 h -2.55323 v 0.59267 h 2.55323 v 1.5822 z m 1.37319,-11.459108 h 4.32065 v -0.59267 h -4.32065 z m 3.51896,12.446008 c -0.18256,0 -0.37836,-0.13758 -0.37836,-0.38365 v -5.3631 c 0,-0.18521 0.1323,-0.37835 0.39159,-0.37835 h 6.89239 c 0.21696,0 0.37306,0.16933 0.37306,0.39423 v 5.33929 c 0,0.25135 -0.18256,0.39158 -0.37835,0.39158 z m 0.0159,-0.39423 h 6.87123 v -4.54554 h -6.87123 z m 4.90802,-4.93977 h 0.39158 v -0.39423 h -0.39158 z"
       fill="#505050"
       stroke="none"
       pointer-events="all"
       id="path28-2"
       style="stroke-width:0.264583" />
    <path
       d="m 151.92156,106.58923 h 0.39422 V 106.195 h -0.39422 z m -0.78582,0 h 0.39423 V 106.195 h -0.39423 z m -10.5992,4.34711 V 97.902962 c 0,-0.48419 0.39952,-0.79639 0.76464,-0.79639 h 5.49011 c 0.54768,0 0.81226,0.4392 0.81226,0.7911 v 7.307788 h -2.16958 c -0.56885,0 -0.97102,0.48419 -0.97102,0.97102 v 0.80698 h -2.55323 v 0.59267 h 2.55323 v 1.18533 h -2.55323 v 0.59267 h 2.55323 v 1.58221 z m 1.37318,-11.459112 h 4.32065 v -0.592656 h -4.32065 z m 3.51896,12.446002 c -0.18256,0 -0.37835,-0.13758 -0.37835,-0.38364 v -5.36311 c 0,-0.18521 0.13229,-0.37835 0.39158,-0.37835 h 6.89239 c 0.21696,0 0.37307,0.16933 0.37307,0.39423 v 5.33929 c 0,0.25135 -0.18257,0.39158 -0.37836,0.39158 z m 0.0159,-0.39423 h 6.87123 v -4.54554 h -6.87123 z m 4.90802,-4.93977 h 0.39159 V 106.195 h -0.39159 z"
       fill="#505050"
       stroke="none"
       pointer-events="all"
       id="path28-1"
       style="stroke-width:0.264583" />
    <path
       d="m 46.955009,106.58924 h 0.39423 v -0.39423 h -0.39423 z m -0.785812,0 h 0.394229 v -0.39423 h -0.394229 z m -10.599208,4.3471 V 97.902972 c 0,-0.48419 0.39952,-0.7964 0.764645,-0.7964 h 5.490105 c 0.547687,0 0.81227,0.43921 0.81227,0.79111 v 7.307788 h -2.169583 c -0.568854,0 -0.971021,0.48418 -0.971021,0.97102 v 0.80698 h -2.553229 v 0.59266 h 2.553229 v 1.18534 h -2.553229 v 0.59266 h 2.553229 v 1.58221 z m 1.373187,-11.459101 h 4.320646 v -0.59267 h -4.320646 z m 3.518958,12.446001 c -0.182562,0 -0.378354,-0.13759 -0.378354,-0.38365 v -5.3631 c 0,-0.18521 0.132292,-0.37836 0.391584,-0.37836 h 6.892395 c 0.216959,0 0.373063,0.16934 0.373063,0.39423 v 5.33929 c 0,0.25136 -0.182563,0.39159 -0.378354,0.39159 z m 0.01588,-0.39423 h 6.87123 v -4.54554 h -6.87123 z m 4.908021,-4.93977 h 0.391584 v -0.39423 h -0.391584 z"
       fill="#505050"
       stroke="none"
       pointer-events="all"
       id="path28-5"
       style="stroke-width:0.264583" />
    <path
       d="m 97.188787,64.643706 h 0.39423 v -0.394229 h -0.39423 z m -0.785812,0 h 0.394229 V 64.249477 H 96.402975 Z M 85.803767,68.99081 V 55.957435 c 0,-0.484187 0.39952,-0.796396 0.764645,-0.796396 h 5.490105 c 0.547687,0 0.81227,0.439209 0.81227,0.791105 v 7.307791 h -2.169583 c -0.568854,0 -0.971021,0.484188 -0.971021,0.971021 v 0.806979 h -2.553229 v 0.592667 h 2.553229 v 1.185333 h -2.553229 v 0.592667 h 2.553229 V 68.99081 Z M 87.176954,57.531706 H 91.4976 v -0.592667 h -4.320646 z m 3.518958,12.446 c -0.182562,0 -0.378354,-0.137583 -0.378354,-0.383646 v -5.363104 c 0,-0.185208 0.132292,-0.378354 0.391584,-0.378354 h 6.892395 c 0.216959,0 0.373063,0.169333 0.373063,0.394229 v 5.339292 c 0,0.251354 -0.182563,0.391583 -0.378354,0.391583 z m 0.01588,-0.394229 h 6.87123 v -4.545542 h -6.87123 z m 4.908021,-4.939771 h 0.391584 v -0.394229 h -0.391584 z"
       fill="#505050"
       stroke="none"
       pointer-events="all"
       id="path28"
       style="stroke-width:0.264583" />
    <text
       xml:space="preserve"
       style="font-size:4.23333px;line-height:1.25;font-family:sans-serif;word-spacing:0px;stroke-width:0.264583"
       x="90.192772"
       y="50.224167"
       id="text90996"><tspan
         sodipodi:role="line"
         id="tspan90994"
         style="font-size:4.23333px;stroke-width:0.264583"
         x="90.192772"
         y="50.224167">172.18.48.0/22</tspan></text>
    <text
       xml:space="preserve"
       style="font-size:4.23333px;line-height:1.25;font-family:sans-serif;word-spacing:0px;stroke-width:0.264583"
       x="43.250584"
       y="84.270584"
       id="text94768"><tspan
         sodipodi:role="line"
         id="tspan94766"
         style="font-size:4.23333px;stroke-width:0.264583"
         x="43.250584"
         y="84.270584">192.168.194.0/24</tspan></text>
  </g>
</svg>
